<svg width="1960" height="2184" viewBox="0 0 1960 2184" fill="none" xmlns="http://www.w3.org/2000/svg">
<g clip-path="url(#clip0_2103_25)">
<path d="M429.5 54C429.5 187.377 309.288 295.5 161 295.5C12.7115 295.5 -107.5 187.377 -107.5 54C-107.5 -79.3768 12.7115 -187.5 161 -187.5C309.288 -187.5 429.5 -79.3768 429.5 54Z" fill="#99A6B6"/>
<ellipse cx="847.5" cy="429.5" rx="121.5" ry="117.5" fill="#474747"/>
<ellipse cx="302" cy="708" rx="68" ry="72" fill="#8A7979"/>
<path d="M2259 261.715C2259 547.736 2114.42 885 2068.2 885C2021.97 885 2115.07 345.912 1558.5 394.057C1306.63 394.057 924 166.917 924 -28.1544C924 -314.175 1285.22 -256.17 1631.68 -256.17C1978.14 -256.17 2259 -24.3049 2259 261.715Z" fill="#3D2F2F"/>
<ellipse cx="1692" cy="410.5" rx="100" ry="98.5" fill="#334046"/>
<path d="M1746 1761.53C1568.5 1666.33 1447.69 1668.29 1378.86 1666.33C1157.93 1660.02 1027.38 1516.68 1009.19 1392.21C990.996 1267.67 1052.23 1140.45 1148.76 1123.53C1341.79 1089.71 1415.51 1088.47 1524.48 916.164C1650.95 716.164 2006.1 588.285 2169.67 711.999C2508.57 968.313 2225.55 1064.52 3032.12 1333.25C3838.7 1601.98 2616.54 1468.18 2477.64 1604.06C2366.52 1712.76 1887.67 1837.51 1746 1761.53Z" fill="#54464A"/>
<ellipse cx="1466" cy="984" rx="77" ry="65" fill="#847676"/>
<path d="M771 1115C771 1235.4 666.011 1333 536.5 1333C406.989 1333 302 1235.4 302 1115C302 994.602 406.989 897 536.5 897C666.011 897 771 994.602 771 1115Z" fill="#323E43"/>
<path d="M-159.9 1981.23C-188.856 1696.68 -79.1636 1346.52 -33.1776 1341.84C12.8084 1337.16 -25.2317 1882.9 523.603 1778.66C774.18 1753.16 1177.84 1940.39 1197.59 2134.46C1226.54 2419.01 861.303 2397.88 516.625 2432.95C171.946 2468.03 -130.944 2265.79 -159.9 1981.23Z" fill="#3D2F2F"/>
<ellipse cx="613.5" cy="1800.5" rx="121.5" ry="117.5" fill="#525252"/>
</g>
<defs>
<clipPath id="clip0_2103_25">
<rect width="1960" height="2184" fill="white"/>
</clipPath>
</defs>
</svg>
