<svg width="34" height="29" viewBox="0 0 34 29" fill="none" xmlns="http://www.w3.org/2000/svg">
<path d="M30.7319 14.7948C30.7334 14.779 30.7411 14.7658 30.7411 14.75C30.7411 13.2914 30.4413 0.5 20.0536 0.5H13.9464C7.15428 0.5 3.25894 5.69413 3.25894 14.75C3.25894 14.7658 3.26657 14.779 3.2681 14.7948C1.82172 15.0345 0.714294 16.2905 0.714294 17.8036V22.8929C0.714294 24.5769 2.08382 25.9464 3.76787 25.9464V28.4911C3.76787 28.7725 3.99536 29 4.27679 29H8.34822C8.62966 29 8.85715 28.7725 8.85715 28.4911V25.9464H25.1429V28.4911C25.1429 28.7725 25.3704 29 25.6518 29H29.7232C30.0047 29 30.2322 28.7725 30.2322 28.4911V25.9464C31.9162 25.9464 33.2857 24.5769 33.2857 22.8929V17.8036C33.2857 16.2905 32.1783 15.0345 30.7319 14.7948ZM13.9464 1.51786H20.0536C29.452 1.51786 29.7232 13.3957 29.7232 14.75H28.7054C28.7054 13.5001 28.4484 2.53571 19.5447 2.53571H14.4554C8.54823 2.53571 5.29465 6.87331 5.29465 14.75H4.27679C4.27679 3.23702 10.3351 1.51786 13.9464 1.51786ZM12.9286 10.6786C10.6801 10.6786 8.85715 12.5016 8.85715 14.75H6.31251C6.31251 5.49564 10.7407 3.55357 14.4554 3.55357H19.5447C22.7713 3.55357 25.0966 5.16179 26.4564 8.33445C27.5984 11.0002 27.6875 13.9189 27.6875 14.75H17C17 12.5016 15.177 10.6786 12.9286 10.6786ZM15.9822 14.75H9.87501C9.87501 13.0639 11.2425 11.6964 12.9286 11.6964C14.6147 11.6964 15.9822 13.0639 15.9822 14.75ZM7.83929 27.9821H4.78572V25.9464H7.83929V27.9821ZM29.2143 27.9821H26.1607V25.9464H29.2143V27.9821ZM32.2679 22.8929C32.2679 24.0156 31.3548 24.9286 30.2322 24.9286H3.76787C2.64517 24.9286 1.73215 24.0156 1.73215 22.8929V17.8036C1.73215 16.6809 2.64517 15.7679 3.76787 15.7679H30.2322C31.3548 15.7679 32.2679 16.6809 32.2679 17.8036V22.8929Z" fill="#7A7A7A"/>
<path d="M6.31251 18.3125C5.18981 18.3125 4.27679 19.2255 4.27679 20.3482C4.27679 21.4709 5.18981 22.3839 6.31251 22.3839C7.43521 22.3839 8.34822 21.4709 8.34822 20.3482C8.34822 19.2255 7.43521 18.3125 6.31251 18.3125ZM6.31251 21.3661C5.75116 21.3661 5.29465 20.9096 5.29465 20.3482C5.29465 19.7869 5.75116 19.3304 6.31251 19.3304C6.87386 19.3304 7.33037 19.7869 7.33037 20.3482C7.33037 20.9096 6.87386 21.3661 6.31251 21.3661Z" fill="#7A7A7A"/>
<path d="M27.6875 18.3125C26.5648 18.3125 25.6518 19.2255 25.6518 20.3482C25.6518 21.4709 26.5648 22.3839 27.6875 22.3839C28.8102 22.3839 29.7232 21.4709 29.7232 20.3482C29.7232 19.2255 28.8102 18.3125 27.6875 18.3125ZM27.6875 21.3661C27.1262 21.3661 26.6697 20.9096 26.6697 20.3482C26.6697 19.7869 27.1262 19.3304 27.6875 19.3304C28.2489 19.3304 28.7054 19.7869 28.7054 20.3482C28.7054 20.9096 28.2489 21.3661 27.6875 21.3661Z" fill="#7A7A7A"/>
<path d="M22.5982 18.8215H11.4018C11.1204 18.8215 10.8929 19.049 10.8929 19.3305C10.8929 19.6119 11.1204 19.8394 11.4018 19.8394H22.5982C22.8797 19.8394 23.1072 19.6119 23.1072 19.3305C23.1072 19.049 22.8797 18.8215 22.5982 18.8215Z" fill="#7A7A7A"/>
<path d="M22.5982 20.8572H11.4018C11.1204 20.8572 10.8929 21.0847 10.8929 21.3661C10.8929 21.6475 11.1204 21.875 11.4018 21.875H22.5982C22.8797 21.875 23.1072 21.6475 23.1072 21.3661C23.1072 21.0847 22.8797 20.8572 22.5982 20.8572Z" fill="#7A7A7A"/>
<path d="M22.4491 6.24788C22.2501 6.04889 21.9285 6.04889 21.7295 6.24788C21.5305 6.44687 21.5305 6.76851 21.7295 6.9675L22.7474 7.98536C22.8466 8.0846 22.9769 8.13447 23.1072 8.13447C23.2375 8.13447 23.3677 8.0846 23.467 7.98536C23.666 7.78637 23.666 7.46472 23.467 7.26573L22.4491 6.24788Z" fill="#7A7A7A"/>
<path d="M19.9044 6.24739C19.7054 6.0484 19.3838 6.0484 19.1848 6.24739C18.9858 6.44638 18.9858 6.76802 19.1848 6.96701L22.7473 10.5295C22.8465 10.6288 22.9768 10.6786 23.1071 10.6786C23.2374 10.6786 23.3677 10.6288 23.4669 10.5295C23.6659 10.3305 23.6659 10.0089 23.4669 9.80989L19.9044 6.24739Z" fill="#7A7A7A"/>
</svg>
