<svg version="1.1" xmlns="http://www.w3.org/2000/svg" xmlns:xlink="http://www.w3.org/1999/xlink" width="100px" height="100px" viewBox="0,0,256,256"><g fill="none" fill-rule="nonzero" stroke="none" stroke-width="1" stroke-linecap="butt" stroke-linejoin="miter" stroke-miterlimit="10" stroke-dasharray="" stroke-dashoffset="0" font-family="none" font-weight="none" font-size="none" text-anchor="none" style="mix-blend-mode: normal"><g transform="scale(2.56,2.56)"><path d="M13,27c-1.10457,0 -2,0.89543 -2,2c0,1.10457 0.89543,2 2,2c1.10457,0 2,-0.89543 2,-2c0,-1.10457 -0.89543,-2 -2,-2z" fill="#d1adb1"></path><path d="M77,12c-0.55228,0 -1,0.44772 -1,1c0,0.55228 0.44772,1 1,1c0.55228,0 1,-0.44772 1,-1c0,-0.55228 -0.44772,-1 -1,-1z" fill="#fcdf87"></path><path d="M50,13c-20.43454,0 -37,16.56546 -37,37c0,20.43454 16.56546,37 37,37c20.43454,0 37,-16.56546 37,-37c0,-20.43454 -16.56546,-37 -37,-37z" fill="#e3e3e3"></path><path d="M83,11c-2.20914,0 -4,1.79086 -4,4c0,2.20914 1.79086,4 4,4c2.20914,0 4,-1.79086 4,-4c0,-2.20914 -1.79086,-4 -4,-4z" fill="#fcdf87"></path><path d="M87,22c-1.10457,0 -2,0.89543 -2,2c0,1.10457 0.89543,2 2,2c1.10457,0 2,-0.89543 2,-2c0,-1.10457 -0.89543,-2 -2,-2z" fill="#d1adb1"></path><path d="M81,74c-1.10457,0 -2,0.89543 -2,2c0,1.10457 0.89543,2 2,2c1.10457,0 2,-0.89543 2,-2c0,-1.10457 -0.89543,-2 -2,-2zM15,59c-2.20914,0 -4,1.79086 -4,4c0,2.20914 1.79086,4 4,4c2.20914,0 4,-1.79086 4,-4c0,-2.20914 -1.79086,-4 -4,-4z" fill="#ffedbf"></path><path d="M25,85c-1.10457,0 -2,0.89543 -2,2c0,1.10457 0.89543,2 2,2c1.10457,0 2,-0.89543 2,-2c0,-1.10457 -0.89543,-2 -2,-2z" fill="#d1adb1"></path><path d="M18.5,51c-1.38071,0 -2.5,1.11929 -2.5,2.5c0,1.38071 1.11929,2.5 2.5,2.5c1.38071,0 2.5,-1.11929 2.5,-2.5c0,-1.38071 -1.11929,-2.5 -2.5,-2.5z" fill="#ffffff"></path><path d="M21,66c-0.55228,0 -1,0.44772 -1,1c0,0.55228 0.44772,1 1,1c0.55228,0 1,-0.44772 1,-1c0,-0.55228 -0.44772,-1 -1,-1z" fill="#fcdf87"></path><path d="M80,33c-0.55228,0 -1,0.44772 -1,1c0,0.55228 0.44772,1 1,1c0.55228,0 1,-0.44772 1,-1c0,-0.55228 -0.44772,-1 -1,-1z" fill="#ffffff"></path><path d="M29.562,71.3c-1.027,0 -1.862,-0.835 -1.862,-1.862v-5.738h6.6v5.737c0,1.027 -0.835,1.862 -1.862,1.862h-2.876z" fill="#8d8d8d"></path><path d="M33.6,64.4v5.037c0,0.641 -0.522,1.162 -1.163,1.162h-2.875c-0.641,0 -1.162,-0.521 -1.162,-1.162v-5.037h5.2M35,63h-8v6.438c0,1.415 1.147,2.562 2.562,2.562h2.875c1.416,0 2.563,-1.147 2.563,-2.562v-6.438z" fill="#472b29"></path><path d="M68.562,71.3c-1.027,0 -1.862,-0.835 -1.862,-1.862v-5.738h6.6v5.737c0,1.027 -0.835,1.862 -1.862,1.862h-2.876z" fill="#8d8d8d"></path><path d="M72.6,64.4v5.037c0,0.641 -0.522,1.162 -1.163,1.162h-2.875c-0.641,0 -1.162,-0.521 -1.162,-1.162v-5.037h5.2M74,63h-8v6.438c0,1.415 1.147,2.562 2.562,2.562h2.875c1.416,0 2.563,-1.147 2.563,-2.562v-6.438z" fill="#472b29"></path><path d="M25.467,44.5h6.066c1.082,0 1.967,-0.885 1.967,-1.967v-2.066c0,-1.082 -0.885,-1.967 -1.967,-1.967h-6.066c-1.082,0 -1.967,0.885 -1.967,1.967v2.066c0,1.082 0.885,1.967 1.967,1.967z" fill="#daaeb2"></path><path d="M31.533,45.2h-6.065c-1.471,0 -2.667,-1.196 -2.667,-2.667v-2.066c0,-1.471 1.197,-2.667 2.667,-2.667h6.065c1.471,0 2.667,1.196 2.667,2.667v2.066c0,1.471 -1.197,2.667 -2.667,2.667zM25.467,39.2c-0.699,0 -1.267,0.568 -1.267,1.267v2.066c0,0.698 0.568,1.267 1.267,1.267h6.065c0.699,0 1.267,-0.568 1.267,-1.267v-2.066c0,-0.698 -0.568,-1.267 -1.267,-1.267z" fill="#472b29"></path><path d="M69.467,44.5h6.066c1.082,0 1.967,-0.885 1.967,-1.967v-2.066c0,-1.082 -0.885,-1.967 -1.967,-1.967h-6.066c-1.082,0 -1.967,0.885 -1.967,1.967v2.066c0,1.082 0.885,1.967 1.967,1.967z" fill="#daaeb2"></path><path d="M75.533,45.2h-6.066c-1.471,0 -2.667,-1.196 -2.667,-2.667v-2.066c0,-1.471 1.196,-2.667 2.667,-2.667h6.066c1.471,0 2.667,1.196 2.667,2.667v2.066c0,1.471 -1.196,2.667 -2.667,2.667zM69.467,39.2c-0.698,0 -1.267,0.568 -1.267,1.267v2.066c0,0.698 0.568,1.267 1.267,1.267h6.066c0.698,0 1.267,-0.568 1.267,-1.267v-2.066c0,-0.698 -0.568,-1.267 -1.267,-1.267z" fill="#472b29"></path><path d="M29.312,65.3c-1.992,0 -3.612,-1.62 -3.612,-3.612v-8.375c0.003,-0.021 0.019,-0.153 0.02,-0.175c0.003,-0.069 -0.003,-0.138 -0.02,-0.203c0.015,-4.303 0.591,-5.101 2.662,-7.965c0.784,-1.085 1.76,-2.435 2.978,-4.343c1.041,-1.633 1.438,-3.714 1.823,-5.727c0.84,-4.4 1.565,-8.2 8.038,-8.2h18.598c6.473,0 7.198,3.8 8.038,8.2c0.385,2.013 0.781,4.094 1.823,5.726c1.218,1.909 2.193,3.259 2.978,4.344c2.073,2.867 2.648,3.662 2.662,7.975c-0.017,0.064 -0.024,0.131 -0.021,0.198c0.001,0.02 0.014,0.131 0.017,0.151l0.004,8.394c0,1.992 -1.62,3.612 -3.612,3.612z" fill="#daaeb2"></path><path d="M59.799,27.4c5.894,0 6.537,3.368 7.35,7.631c0.397,2.078 0.807,4.226 1.92,5.971c1.229,1.927 2.212,3.286 3.001,4.378c2.053,2.839 2.512,3.474 2.529,7.484c-0.017,0.101 -0.024,0.204 -0.019,0.308c0.003,0.064 0.01,0.126 0.019,0.198v8.317c0,1.606 -1.307,2.912 -2.913,2.912h-42.374c-1.606,0 -2.912,-1.307 -2.912,-2.912v-8.317c0.009,-0.066 0.016,-0.132 0.019,-0.199c0.005,-0.1 -0.002,-0.2 -0.019,-0.298c0.016,-4.019 0.474,-4.652 2.529,-7.494c0.789,-1.092 1.772,-2.451 3.001,-4.378c1.114,-1.746 1.524,-3.894 1.92,-5.971c0.814,-4.264 1.457,-7.631 7.35,-7.631h8.8h1h8.799M59.799,26h-8.799h-1h-8.799c-10.284,0 -7.368,9.417 -10.451,14.25c-4.538,7.114 -5.75,6.479 -5.75,12.854l0.021,-0.001c-0.003,0.071 -0.021,0.138 -0.021,0.21v8.375c0,2.381 1.931,4.312 4.312,4.312h42.375c2.382,0 4.313,-1.931 4.313,-4.312v-8.375c0,-0.072 -0.018,-0.138 -0.021,-0.209h0.021c0,-6.375 -1.212,-5.74 -5.75,-12.854c-3.083,-4.833 -0.167,-14.25 -10.451,-14.25z" fill="#472b29"></path><path d="M33.613,44.3c-1.36,-0.549 -3.222,-1.3 -3.39,-1.849c-0.006,-0.021 -0.026,-0.085 0.082,-0.245c0.324,-0.48 0.669,-1.005 1.036,-1.579c1.041,-1.633 1.438,-3.714 1.823,-5.727c0.84,-4.4 1.565,-8.2 8.038,-8.2h18.598c6.473,0 7.198,3.8 8.038,8.2c0.385,2.013 0.781,4.094 1.823,5.726c0.387,0.606 0.748,1.156 1.088,1.659c0.041,0.061 0.087,0.144 0.072,0.194c-0.154,0.502 -1.932,1.217 -3.23,1.738l-0.204,0.083z" fill="#c4d3e8"></path><path d="M59.799,27.4c5.894,0 6.537,3.368 7.35,7.631c0.397,2.078 0.807,4.226 1.92,5.971c0.311,0.488 0.607,0.94 0.889,1.363c-0.551,0.367 -1.773,0.859 -2.632,1.204l-0.075,0.031h-33.502c-0.922,-0.372 -2.166,-0.882 -2.691,-1.26c0.276,-0.414 0.567,-0.858 0.873,-1.338c1.114,-1.746 1.524,-3.894 1.92,-5.971c0.814,-4.264 1.457,-7.631 7.35,-7.631h8.799h1h8.799M59.799,26h-8.799h-1h-8.799c-10.284,0 -7.368,9.417 -10.451,14.25c-0.363,0.569 -0.705,1.089 -1.026,1.566c-0.899,1.335 1.276,2.184 3.753,3.184h34.045c2.477,-1 4.681,-1.81 3.805,-3.108c-0.336,-0.498 -0.695,-1.042 -1.078,-1.642c-3.082,-4.833 -0.166,-14.25 -10.45,-14.25z" fill="#472b29"></path><g><path d="M31.5,56.3c-1.544,0 -2.8,-1.256 -2.8,-2.8c0,-1.544 1.256,-2.8 2.8,-2.8h4c1.544,0 2.8,1.256 2.8,2.8c0,1.544 -1.256,2.8 -2.8,2.8z" fill="#fae485"></path><path d="M35.5,51.4c1.158,0 2.1,0.942 2.1,2.1c0,1.158 -0.942,2.1 -2.1,2.1h-4c-1.158,0 -2.1,-0.942 -2.1,-2.1c0,-1.158 0.942,-2.1 2.1,-2.1h4M35.5,50h-4c-1.933,0 -3.5,1.567 -3.5,3.5c0,1.933 1.567,3.5 3.5,3.5h4c1.933,0 3.5,-1.567 3.5,-3.5c0,-1.933 -1.567,-3.5 -3.5,-3.5z" fill="#472b29"></path></g><g><path d="M65.5,56.3c-1.544,0 -2.8,-1.256 -2.8,-2.8c0,-1.544 1.256,-2.8 2.8,-2.8h4c1.544,0 2.8,1.256 2.8,2.8c0,1.544 -1.256,2.8 -2.8,2.8z" fill="#fae485"></path><path d="M69.5,51.4c1.158,0 2.1,0.942 2.1,2.1c0,1.158 -0.942,2.1 -2.1,2.1h-4c-1.158,0 -2.1,-0.942 -2.1,-2.1c0,-1.158 0.942,-2.1 2.1,-2.1h4M69.5,50h-4c-1.933,0 -3.5,1.567 -3.5,3.5c0,1.933 1.567,3.5 3.5,3.5h4c1.933,0 3.5,-1.567 3.5,-3.5c0,-1.933 -1.567,-3.5 -3.5,-3.5z" fill="#472b29"></path></g><g fill="#472b29"><path d="M75.5,61h-18c-0.276,0 -0.5,-0.224 -0.5,-0.5c0,-0.276 0.224,-0.5 0.5,-0.5h18c0.276,0 0.5,0.224 0.5,0.5c0,0.276 -0.224,0.5 -0.5,0.5z"></path></g><g fill="#472b29"><path d="M44.5,61h-14c-0.276,0 -0.5,-0.224 -0.5,-0.5c0,-0.276 0.224,-0.5 0.5,-0.5h14c0.276,0 0.5,0.224 0.5,0.5c0,0.276 -0.224,0.5 -0.5,0.5z"></path></g><g fill="#472b29"><path d="M44.5,41h-10c-0.276,0 -0.5,-0.224 -0.5,-0.5c0,-0.276 0.224,-0.5 0.5,-0.5h10c0.276,0 0.5,0.224 0.5,0.5c0,0.276 -0.224,0.5 -0.5,0.5z"></path></g><g fill="#472b29"><path d="M51.5,41h-4c-0.276,0 -0.5,-0.224 -0.5,-0.5c0,-0.276 0.224,-0.5 0.5,-0.5h4c0.276,0 0.5,0.224 0.5,0.5c0,0.276 -0.224,0.5 -0.5,0.5z"></path></g><g fill="#472b29"><path d="M53.5,61h-5c-0.276,0 -0.5,-0.224 -0.5,-0.5c0,-0.276 0.224,-0.5 0.5,-0.5h5c0.276,0 0.5,0.224 0.5,0.5c0,0.276 -0.224,0.5 -0.5,0.5z"></path></g><g fill="#472b29"><path d="M44.5,57c-0.276,0 -0.5,-0.224 -0.5,-0.5v-5c0,-0.276 0.224,-0.5 0.5,-0.5c0.276,0 0.5,0.224 0.5,0.5v5c0,0.276 -0.224,0.5 -0.5,0.5z"></path></g><g fill="#472b29"><path d="M41.5,57c-0.276,0 -0.5,-0.224 -0.5,-0.5v-5c0,-0.276 0.224,-0.5 0.5,-0.5c0.276,0 0.5,0.224 0.5,0.5v5c0,0.276 -0.224,0.5 -0.5,0.5z"></path></g><g fill="#472b29"><path d="M47.5,57c-0.276,0 -0.5,-0.224 -0.5,-0.5v-5c0,-0.276 0.224,-0.5 0.5,-0.5c0.276,0 0.5,0.224 0.5,0.5v5c0,0.276 -0.224,0.5 -0.5,0.5z"></path></g><g fill="#472b29"><path d="M50.5,57c-0.276,0 -0.5,-0.224 -0.5,-0.5v-5c0,-0.276 0.224,-0.5 0.5,-0.5c0.276,0 0.5,0.224 0.5,0.5v5c0,0.276 -0.224,0.5 -0.5,0.5z"></path></g><g fill="#472b29"><path d="M53.5,57c-0.276,0 -0.5,-0.224 -0.5,-0.5v-5c0,-0.276 0.224,-0.5 0.5,-0.5c0.276,0 0.5,0.224 0.5,0.5v5c0,0.276 -0.224,0.5 -0.5,0.5z"></path></g><g fill="#472b29"><path d="M56.5,57c-0.276,0 -0.5,-0.224 -0.5,-0.5v-5c0,-0.276 0.224,-0.5 0.5,-0.5c0.276,0 0.5,0.224 0.5,0.5v5c0,0.276 -0.224,0.5 -0.5,0.5z"></path></g><g fill="#472b29"><path d="M59.5,57c-0.276,0 -0.5,-0.224 -0.5,-0.5v-5c0,-0.276 0.224,-0.5 0.5,-0.5c0.276,0 0.5,0.224 0.5,0.5v5c0,0.276 -0.224,0.5 -0.5,0.5z"></path></g><g fill="#472b29"><path d="M66.7,44h-1.4c0,-2.923 -2.377,-5.3 -5.3,-5.3c-2.923,0 -5.3,2.377 -5.3,5.3h-1.4c0,-3.694 3.006,-6.7 6.7,-6.7c3.694,0 6.7,3.006 6.7,6.7z"></path></g><g><path d="M53,32.5h-4c-0.825,0 -1.5,-0.675 -1.5,-1.5v0c0,-0.825 0.675,-1.5 1.5,-1.5h4c0.825,0 1.5,0.675 1.5,1.5v0c0,0.825 -0.675,1.5 -1.5,1.5z" fill="#daaeb2"></path><path d="M53,33.2h-4c-1.213,0 -2.2,-0.987 -2.2,-2.2c0,-1.213 0.987,-2.2 2.2,-2.2h4c1.213,0 2.2,0.987 2.2,2.2c0,1.213 -0.987,2.2 -2.2,2.2zM49,30.2c-0.441,0 -0.8,0.358 -0.8,0.8c0,0.442 0.359,0.8 0.8,0.8h4c0.441,0 0.8,-0.358 0.8,-0.8c0,-0.442 -0.358,-0.8 -0.8,-0.8z" fill="#472b29"></path></g></g></g></svg>