<svg width="33" height="28" viewBox="0 0 33 28" fill="none" xmlns="http://www.w3.org/2000/svg">
<path d="M16.0073 27.9925L15.9988 28H15.6943H6.7343C3.20402 28 0.636271 25.4737 0.318811 22.5891C0.181541 21.3412 0.464716 20.0263 1.27399 18.8195L8.53087 7.99966L3.16541 0H19.2629L14.1146 7.67591C15.4768 7.3434 17.6318 7.08981 18.7484 7.24104L18.3408 8.13065C17.3419 8.06711 15.4726 8.30081 14.2954 8.59309L21.1544 18.8195C23.7792 22.7328 20.8773 27.7837 16.0073 27.9925ZM32.2856 15.4576L24.1574 20.1067L17.4538 9.96325L18.3598 8.13515C18.5067 8.14296 18.6559 8.15385 18.8077 8.16864C19.7491 8.26058 20.5499 8.47311 21.1217 8.77047C20.9815 9.16321 21.0213 9.60873 21.2718 9.98905C21.7221 10.6726 22.6817 10.8866 23.4152 10.467C24.1488 10.0474 24.3784 9.15315 23.9281 8.46967C23.4778 7.78619 22.5182 7.57213 21.7847 7.99173C21.7682 8.0012 21.7522 8.01114 21.7362 8.02108C20.9267 7.56515 19.8464 7.31062 18.7668 7.22045L19.8377 5.05807L25.5612 5.23154L32.2856 15.4576ZM29.3715 14.4791L29.3782 14.4614L28.9269 13.7574L28.9071 13.8723C28.7836 14.5732 28.3394 15.183 27.6874 15.5486C27.2074 15.8158 26.6618 15.9286 26.1061 15.8754C25.5891 15.8261 25.0951 15.6292 24.6997 15.3182L27.6594 13.6707L27.5612 13.0567L24.2727 14.8872C24.231 14.8318 24.1917 14.775 24.1546 14.7171C24.1175 14.6592 24.0825 14.5999 24.0497 14.5395L27.4915 12.6236L27.3933 12.0096L23.8449 13.9849C23.618 12.9958 24.0785 11.9838 25.0012 11.4477L25.0124 11.4416C25.019 11.4379 25.0257 11.4341 25.0323 11.4304L25.0412 11.4255C25.6923 11.063 26.4789 10.9875 27.1984 11.2164L27.2698 11.2384L27.1703 10.6083L27.1419 10.6016C26.3163 10.4095 25.4597 10.5266 24.7287 10.9336L24.7177 10.9397C24.7088 10.9447 24.7022 10.9484 24.6931 10.9533C23.4803 11.648 22.9058 13.0187 23.2888 14.2887L22.74 14.5943L22.8293 15.2133L23.518 14.8299C23.5508 14.8903 23.5857 14.9495 23.6229 15.0075C23.6601 15.0655 23.6995 15.1221 23.7411 15.1776L23.2634 15.4435L23.3616 16.0575L24.146 15.6209C25.1823 16.5555 26.763 16.7264 28.0029 16.0361C28.6383 15.6823 29.1243 15.1282 29.3715 14.4791Z" fill="#8F8E8E"/>
</svg>
